<svg width="48" height="48" viewBox="0 0 48 48" fill="none" xmlns="http://www.w3.org/2000/svg">
<rect opacity="0.2" width="48" height="48" rx="12" fill="#C2E2E9"/>
<path d="M31.0638 23.3696C30.3016 22.4794 29.9552 21.7081 29.9552 20.3976V19.952C29.9552 18.2442 29.5621 17.1439 28.7076 16.0436C27.3905 14.3348 25.1733 13.3049 23.0027 13.3049H22.9104C20.7854 13.3049 18.6376 14.2875 17.2977 15.9269C16.3965 17.0493 15.9578 18.1969 15.9578 19.952V20.3976C15.9578 21.7081 15.6343 22.4794 14.8492 23.3696C14.2715 24.0253 14.0869 24.8682 14.0869 25.7804C14.0869 26.6936 14.3867 27.5586 14.9882 28.2616C15.7732 29.1045 16.8819 29.6425 18.0143 29.7361C19.654 29.9231 21.2936 29.9935 22.957 29.9935C24.6195 29.9935 26.2591 29.8758 27.8997 29.7361C29.0312 29.6425 30.1398 29.1045 30.9249 28.2616C31.5253 27.5586 31.8261 26.6936 31.8261 25.7804C31.8261 24.8682 31.6415 24.0253 31.0638 23.3696Z" fill="#0F808C"/>
<path opacity="0.4" d="M25.0525 31.2823C24.5309 31.1709 21.3523 31.1709 20.8306 31.2823C20.3847 31.3853 19.9024 31.6249 19.9024 32.1503C19.9284 32.6516 20.2219 33.0941 20.6284 33.3747L20.6273 33.3757C21.1531 33.7856 21.7702 34.0462 22.4163 34.1397C22.7606 34.187 23.1111 34.1849 23.4679 34.1397C24.113 34.0462 24.73 33.7856 25.2558 33.3757L25.2548 33.3747C25.6613 33.0941 25.9548 32.6516 25.9807 32.1503C25.9807 31.6249 25.4985 31.3853 25.0525 31.2823Z" fill="#0F808C"/>
</svg>
