<svg width="16" height="18" viewBox="0 0 16 18" fill="none" xmlns="http://www.w3.org/2000/svg">
<path d="M8.01006 11.3584C6.673 11.3584 5.59143 10.3168 5.59143 9.00842C5.59143 7.70009 6.673 6.65009 8.01006 6.65009C9.34712 6.65009 10.4031 7.70009 10.4031 9.00842C10.4031 10.3168 9.34712 11.3584 8.01006 11.3584Z" fill="#C2E2E9"/>
<path opacity="0.4" d="M15.6917 10.9751C15.5299 10.7251 15.2999 10.4751 15.0019 10.3167C14.7634 10.2001 14.6101 10.0084 14.4739 9.78341C14.0395 9.06675 14.295 8.12508 15.0189 7.70008C15.8705 7.22508 16.1431 6.16675 15.6491 5.34175L15.0785 4.35841C14.5931 3.53341 13.5286 3.24175 12.6854 3.72508C11.936 4.12508 10.9737 3.85841 10.5393 3.15008C10.4031 2.91675 10.3264 2.66675 10.3435 2.41675C10.369 2.09175 10.2668 1.78341 10.1135 1.53341C9.79841 1.01675 9.22781 0.666748 8.59761 0.666748H7.39681C6.77512 0.683415 6.20452 1.01675 5.88942 1.53341C5.72761 1.78341 5.63393 2.09175 5.65096 2.41675C5.668 2.66675 5.59135 2.91675 5.45509 3.15008C5.02076 3.85841 4.05841 4.12508 3.31749 3.72508C2.46586 3.24175 1.40984 3.53341 0.915894 4.35841L0.345301 5.34175C-0.140129 6.16675 0.132393 7.22508 0.975508 7.70008C1.69939 8.12508 1.95488 9.06675 1.52907 9.78341C1.38429 10.0084 1.231 10.2001 0.992541 10.3167C0.702986 10.4751 0.447497 10.7251 0.311236 10.9751C-0.00386771 11.4917 0.0131649 12.1417 0.328268 12.6834L0.915894 13.6834C1.231 14.2167 1.81862 14.5501 2.4318 14.5501C2.72135 14.5501 3.062 14.4667 3.33453 14.3001C3.54743 14.1584 3.80292 14.1084 4.08396 14.1084C4.92708 14.1084 5.63393 14.8001 5.65096 15.6251C5.65096 16.5834 6.43446 17.3334 7.42236 17.3334H8.58057C9.55995 17.3334 10.3435 16.5834 10.3435 15.6251C10.369 14.8001 11.0759 14.1084 11.919 14.1084C12.1915 14.1084 12.447 14.1584 12.6684 14.3001C12.9409 14.4667 13.2731 14.5501 13.5711 14.5501C14.1758 14.5501 14.7634 14.2167 15.0785 13.6834L15.6747 12.6834C15.9812 12.1251 16.0068 11.4917 15.6917 10.9751Z" fill="#C2E2E9"/>
</svg>
