<svg width="16" height="18" viewBox="0 0 16 18" fill="none" xmlns="http://www.w3.org/2000/svg">
<path opacity="0.4" d="M8.0721 17.3333C7.96891 17.3333 7.86572 17.3096 7.77259 17.2614L4.77168 15.708C3.92015 15.2667 3.25403 14.7715 2.73388 14.1946C1.59543 12.9329 0.962022 11.3133 0.951955 9.63326L0.916719 4.10356C0.912524 3.46536 1.32445 2.89253 1.94023 2.6768L7.45044 0.755662C7.77763 0.638808 8.14257 0.637174 8.47563 0.749942L14.0068 2.60571C14.626 2.81245 15.0446 3.38119 15.0479 4.01857L15.0832 9.55236C15.0941 11.23 14.4825 12.8561 13.3617 14.1317C12.8474 14.7168 12.1871 15.2194 11.344 15.6688L8.36992 17.2573C8.27764 17.3072 8.17529 17.3325 8.0721 17.3333Z" fill="#C2E2E9"/>
<path d="M7.4327 10.9341C7.27162 10.9349 7.11054 10.8769 6.98638 10.7576L5.38903 9.22133C5.14237 8.98272 5.13986 8.59539 5.38399 8.35515C5.62813 8.11408 6.02663 8.11163 6.27411 8.34943L7.42347 9.45422L10.2297 6.68733C10.4747 6.44626 10.8732 6.44381 11.1199 6.68161C11.3674 6.92022 11.3699 7.30837 11.1257 7.54779L7.8765 10.7519C7.75402 10.8728 7.59378 10.9333 7.4327 10.9341Z" fill="#C2E2E9"/>
</svg>
