<svg width="18" height="19" viewBox="0 0 18 19" fill="none" xmlns="http://www.w3.org/2000/svg">
<path d="M1.91279 18.8796C1.99886 18.8796 2.06782 18.8106 2.06782 18.7245C2.06782 18.6385 1.99886 18.5695 1.91279 18.5695C1.82674 18.5695 1.75775 18.6385 1.75775 18.7245C1.75775 18.8106 1.82674 18.8796 1.91279 18.8796Z" fill="#C2E2E9"/>
<path d="M16.6878 17.8666H10.313C10.0025 17.8666 9.75055 17.6146 9.75055 17.3041V7.17941C9.75055 7.00991 9.82705 6.84942 9.95829 6.74292C10.0895 6.63567 10.2613 6.59368 10.4278 6.62892L16.9653 7.99838C17.5773 8.13412 18.0003 8.66061 18.0003 9.28084V16.5541C18.0003 17.2778 17.4115 17.8666 16.6878 17.8666Z" fill="#C2E2E9" fill-opacity="0.4"/>
<path opacity="0.4" d="M9.77217 1.26896L1.52995 0.0165009C1.14746 -0.0434971 0.757475 0.0614994 0.464985 0.308991C0.172494 0.563983 0 0.93147 0 1.31396V17.1159C0 17.5284 0.337489 17.8659 0.749975 17.8659H3.18739V13.9285C3.18739 13.2011 3.77237 12.6161 4.49985 12.6161H6.37479C7.10226 12.6161 7.68724 13.2011 7.68724 13.9285V17.8659H10.8746V2.56642C10.8746 1.92144 10.4097 1.37396 9.77217 1.26896Z" fill="#C2E2E9"/>
<path d="M4.12336 6.42815H2.99839C2.6879 6.42815 2.43591 6.17616 2.43591 5.86567C2.43591 5.55518 2.6879 5.30319 2.99839 5.30319H4.12336C4.43385 5.30319 4.68584 5.55518 4.68584 5.86567C4.68584 6.17616 4.43385 6.42815 4.12336 6.42815Z" fill="#C2E2E9"/>
<path d="M7.87244 6.42815H6.74748C6.43699 6.42815 6.185 6.17616 6.185 5.86567C6.185 5.55518 6.43699 5.30319 6.74748 5.30319H7.87244C8.18293 5.30319 8.43492 5.55518 8.43492 5.86567C8.43492 6.17616 8.18293 6.42815 7.87244 6.42815Z" fill="#C2E2E9"/>
<path d="M4.12336 8.67808H2.99839C2.6879 8.67808 2.43591 8.42609 2.43591 8.1156C2.43591 7.80511 2.6879 7.55312 2.99839 7.55312H4.12336C4.43385 7.55312 4.68584 7.80511 4.68584 8.1156C4.68584 8.42609 4.43385 8.67808 4.12336 8.67808Z" fill="#C2E2E9"/>
<path d="M7.87244 8.67808H6.74748C6.43699 8.67808 6.185 8.42609 6.185 8.1156C6.185 7.80511 6.43699 7.55312 6.74748 7.55312H7.87244C8.18293 7.55312 8.43492 7.80511 8.43492 8.1156C8.43492 8.42609 8.18293 8.67808 7.87244 8.67808Z" fill="#C2E2E9"/>
<path d="M4.12336 10.928H2.99839C2.6879 10.928 2.43591 10.676 2.43591 10.3655C2.43591 10.055 2.6879 9.80305 2.99839 9.80305H4.12336C4.43385 9.80305 4.68584 10.055 4.68584 10.3655C4.68584 10.676 4.43385 10.928 4.12336 10.928Z" fill="#C2E2E9"/>
<path d="M7.87244 10.928H6.74748C6.43699 10.928 6.185 10.676 6.185 10.3655C6.185 10.055 6.43699 9.80305 6.74748 9.80305H7.87244C8.18293 9.80305 8.43492 10.055 8.43492 10.3655C8.43492 10.676 8.18293 10.928 7.87244 10.928Z" fill="#C2E2E9"/>
<path d="M14.8106 13.365H13.6856C13.3751 13.365 13.1231 13.113 13.1231 12.8025C13.1231 12.4921 13.3751 12.2401 13.6856 12.2401H14.8106C15.121 12.2401 15.373 12.4921 15.373 12.8025C15.373 13.113 15.121 13.365 14.8106 13.365Z" fill="#C2E2E9"/>
<path d="M14.8106 15.615H13.6856C13.3751 15.615 13.1231 15.363 13.1231 15.0525C13.1231 14.742 13.3751 14.49 13.6856 14.49H14.8106C15.121 14.49 15.373 14.742 15.373 15.0525C15.373 15.363 15.121 15.615 14.8106 15.615Z" fill="#C2E2E9"/>
<path d="M4.12317 4.17898H2.99821C2.68772 4.17898 2.43573 3.92699 2.43573 3.6165C2.43573 3.30601 2.68772 3.05402 2.99821 3.05402H4.12317C4.43366 3.05402 4.68566 3.30601 4.68566 3.6165C4.68566 3.92699 4.43366 4.17898 4.12317 4.17898Z" fill="#C2E2E9"/>
<path d="M7.87244 4.17822H6.74748C6.43699 4.17822 6.185 3.92622 6.185 3.61573C6.185 3.30524 6.43699 3.05325 6.74748 3.05325H7.87244C8.18293 3.05325 8.43492 3.30524 8.43492 3.61573C8.43492 3.92622 8.18293 4.17822 7.87244 4.17822Z" fill="#C2E2E9"/>
<path d="M14.8106 11.1151H13.6856C13.3751 11.1151 13.1231 10.8631 13.1231 10.5526C13.1231 10.2421 13.3751 9.99013 13.6856 9.99013H14.8106C15.121 9.99013 15.373 10.2421 15.373 10.5526C15.373 10.8631 15.121 11.1151 14.8106 11.1151Z" fill="#C2E2E9"/>
<path d="M4.68822 3.61597H2.43829C2.43829 3.92646 2.69029 4.17845 3.00077 4.17845H4.12574C4.43623 4.17845 4.68822 3.92646 4.68822 3.61597Z" fill="#C2E2E9"/>
<path d="M8.43724 3.61597H6.18732C6.18732 3.92646 6.43931 4.17845 6.7498 4.17845H7.87476C8.18525 4.17845 8.43724 3.92646 8.43724 3.61597Z" fill="#C2E2E9"/>
<path d="M4.68822 5.86591H2.43829C2.43829 6.1764 2.69029 6.42839 3.00077 6.42839H4.12574C4.43623 6.42839 4.68822 6.1764 4.68822 5.86591Z" fill="#C2E2E9"/>
<path d="M8.43724 5.86591H6.18732C6.18732 6.1764 6.43931 6.42839 6.7498 6.42839H7.87476C8.18525 6.42839 8.43724 6.1764 8.43724 5.86591Z" fill="#C2E2E9"/>
<path d="M4.68822 8.11583H2.43829C2.43829 8.42632 2.69029 8.67831 3.00077 8.67831H4.12574C4.43623 8.67831 4.68822 8.42632 4.68822 8.11583Z" fill="#C2E2E9"/>
<path d="M8.43724 8.11583H6.18732C6.18732 8.42632 6.43931 8.67831 6.7498 8.67831H7.87476C8.18525 8.67831 8.43724 8.42632 8.43724 8.11583Z" fill="#C2E2E9"/>
<path d="M4.68822 10.3658H2.43829C2.43829 10.6763 2.69029 10.9282 3.00077 10.9282H4.12574C4.43623 10.9282 4.68822 10.6763 4.68822 10.3658Z" fill="#C2E2E9"/>
<path d="M8.43724 10.3658H6.18732C6.18732 10.6763 6.43931 10.9282 6.7498 10.9282H7.87476C8.18525 10.9282 8.43724 10.6763 8.43724 10.3658Z" fill="#C2E2E9"/>
<path d="M15.3754 10.5541H13.1254C13.1254 10.8646 13.3774 11.1166 13.6879 11.1166H14.8129C15.1234 11.1166 15.3754 10.8646 15.3754 10.5541Z" fill="#C2E2E9"/>
<path d="M15.3754 12.804H13.1254C13.1254 13.1145 13.3774 13.3665 13.6879 13.3665H14.8129C15.1234 13.3665 15.3754 13.1145 15.3754 12.804Z" fill="#C2E2E9"/>
<path d="M15.3754 15.054H13.1254C13.1254 15.3645 13.3774 15.6165 13.6879 15.6165H14.8129C15.1234 15.6165 15.3754 15.3645 15.3754 15.054Z" fill="#C2E2E9"/>
</svg>
