<svg width="16" height="17" viewBox="0 0 16 17" fill="none" xmlns="http://www.w3.org/2000/svg">
<path opacity="0.4" d="M0.000183105 7.42957C0.0401831 9.29997 0.152183 12.4992 0.168183 12.852C0.224983 13.6064 0.513783 14.3688 0.963383 14.9064C1.58898 15.6608 2.35938 15.9976 3.43378 15.9976C4.91858 16.0056 6.55538 16.0056 8.14498 16.0056C9.74098 16.0056 11.2898 16.0056 12.5978 15.9976C13.657 15.9976 14.4514 15.652 15.069 14.9064C15.5186 14.3688 15.8074 13.5984 15.8482 12.852C15.8642 12.5552 15.9442 9.08237 15.9922 7.42957H0.000183105Z" fill="white"/>
<path d="M7.39636 10.8741V11.9093C7.39636 12.2405 7.66516 12.5093 7.99636 12.5093C8.32756 12.5093 8.59636 12.2405 8.59636 11.9093V10.8741C8.59636 10.5429 8.32756 10.2741 7.99636 10.2741C7.66516 10.2741 7.39636 10.5429 7.39636 10.8741" fill="white"/>
<path fill-rule="evenodd" clip-rule="evenodd" d="M6.56904 10.2119C6.48904 10.5023 6.20984 10.6879 5.90744 10.6479C3.86664 10.3631 1.91624 9.63908 0.269844 8.55188C0.101044 8.44148 0.000244141 8.25268 0.000244141 8.05108V5.27828C0.000244141 3.59828 1.36984 2.23188 3.05384 2.23188H4.62744C4.77784 1.07028 5.76184 0.167084 6.96344 0.167084H9.02904C10.2298 0.167084 11.2146 1.07028 11.365 2.23188H12.9466C14.6258 2.23188 15.9922 3.59828 15.9922 5.27828V8.05108C15.9922 8.25268 15.8906 8.44068 15.7234 8.55188C14.0738 9.64388 12.1154 10.3711 10.061 10.6551C10.033 10.6591 10.0058 10.6607 9.97864 10.6607C9.70744 10.6607 9.46504 10.4775 9.39704 10.2087C9.23544 9.57188 8.65704 9.12628 7.99224 9.12628C7.31864 9.12628 6.74664 9.56228 6.56904 10.2119ZM9.02904 1.36708H6.96344C6.42504 1.36708 5.97544 1.73508 5.84104 2.23188H10.1506C10.0162 1.73508 9.56664 1.36708 9.02904 1.36708Z" fill="white"/>
</svg>
