<svg width="140" height="46" viewBox="0 0 140 46" fill="none" xmlns="http://www.w3.org/2000/svg">
<g clip-path="url(#clip0_2_646)">
<path d="M140 29.2891V3.82163C140 1.71198 138.278 0 136.156 0H123.708H3.84425C1.72212 0 0 1.71198 0 3.82163V41.455C0 43.5646 1.72212 45.2766 3.84425 45.2766H122.558C123.508 45.2766 124.423 44.9261 125.131 44.2959L138.729 32.13C139.536 31.4055 140 30.3709 140 29.2891Z" fill="#46B2C8"/>
<path d="M34.4761 35.7528H29.1369C27.4419 35.7528 26.0621 34.3812 26.0621 32.6962V12.5804C26.0621 10.8954 27.4419 9.52374 29.1369 9.52374H34.4727C36.1677 9.52374 37.5474 10.8954 37.5474 12.5804V32.6928C37.5508 34.3812 36.1711 35.7528 34.4761 35.7528ZM29.1369 12.058C28.8487 12.058 28.6114 12.2906 28.6114 12.5804V32.6928C28.6114 32.9793 28.8453 33.2152 29.1369 33.2152H34.4727C34.7609 33.2152 34.9982 32.9826 34.9982 32.6928V12.5804C34.9982 12.2939 34.7642 12.058 34.4727 12.058H29.1369Z" fill="#C7E8EF"/>
<path d="M97.5404 9.54736H94.9911V35.7326H97.5404V9.54736Z" fill="white"/>
<path d="M77.9224 12.058V9.52374H67.7084V35.7528H77.9224V33.2152H70.261V26.866H74.9426V24.3317H70.261V12.058H77.9224Z" fill="white"/>
<path d="M65.8337 9.53394L62.9353 33.249C62.6573 34.7149 61.4166 35.7394 59.9148 35.7394C58.4131 35.7394 57.1689 34.7149 56.8943 33.249L56.8808 33.1681L54.0162 9.53394H56.5859L59.4063 32.8109C59.4843 33.1344 59.7216 33.2052 59.9148 33.2052C60.1047 33.2052 60.3454 33.1344 60.4233 32.8109L63.2641 9.53394H65.8337Z" fill="white"/>
<path d="M52.2263 9.52374V32.6928C52.2263 34.3778 50.8465 35.7495 49.1515 35.7495H43.8191C42.1207 35.7495 40.741 34.3778 40.741 32.6928V9.52374H43.2902V32.6928C43.2902 32.9826 43.5275 33.2152 43.8191 33.2152H49.1515C49.4431 33.2152 49.677 32.9793 49.677 32.6928V9.52374H52.2263Z" fill="#C7E8EF"/>
<path d="M111.253 12.0716V9.53394H101.039V35.7428H103.591V26.8796H108.273V24.3453H103.591V12.0716H111.253Z" fill="white"/>
<path d="M22.4688 9.52374L18.8313 21.1908L15.4277 9.52374H12.7734L17.516 25.7741V35.7292H20.0653V25.7977L25.1367 9.52374H22.4688Z" fill="#C7E8EF"/>
<path d="M121.365 9.52374L117.727 21.1908L114.321 9.52374H111.666L116.409 25.7741V35.7292H118.958V25.7977L124.033 9.52374H121.365Z" fill="white"/>
<path d="M86.6414 26.1482C89.7805 24.7934 91.9806 21.6829 91.9806 18.0736V12.5804C91.9806 10.8954 90.6043 9.52374 88.9059 9.52374H83.5667C81.8717 9.52374 80.4919 10.8954 80.4919 12.5804V25.5989V26.866V35.7259H83.0412V26.8694H83.1294C83.4311 26.8694 83.7294 26.8525 84.0209 26.8256L90.0009 35.7326H93.0722L86.6414 26.1482ZM83.0446 24.3351V12.5837C83.0446 12.2939 83.2785 12.0614 83.5667 12.0614H88.9059C89.194 12.0614 89.428 12.2973 89.428 12.5837V18.0769C89.428 21.5279 86.6041 24.3351 83.1327 24.3351H83.0446Z" fill="white"/>
</g>
<defs>
<clipPath id="clip0_2_646">
<rect width="140" height="45.2766" fill="white"/>
</clipPath>
</defs>
</svg>
